<svg width="192" height="192" viewBox="0 0 192 192" fill="none" xmlns="http://www.w3.org/2000/svg">
  <rect width="192" height="192" rx="44" fill="#1A4A8B"/>
  <circle cx="96" cy="96" r="66" fill="#FFFFFF" fill-opacity="0.1"/>
  <path d="M113.7 126.8c-5.4 3.5-12 5.2-19.8 5.2-10.7 0-19.5-3.4-26.3-10.3-6.8-6.9-10.2-15.6-10.2-26.2 0-10.9 3.5-19.8 10.5-26.7 7-6.9 16.1-10.4 27.2-10.4 7.5 0 13.8 1.5 18.9 4.4 5.1 2.9 9.1 7.2 11.8 12.8l-14.4 8.3c-3.2-6.2-8.7-9.3-16.5-9.3-6 0-10.9 1.9-14.7 5.8-3.8 3.9-5.7 8.9-5.7 15 0 6.2 1.9 11.1 5.8 14.9 3.9 3.8 8.8 5.7 14.8 5.7 7.8 0 13.5-3.1 17.1-9.4l14.2 8.1c-2.9 5.3-7.1 9.5-12.5 13Z" fill="#FFFFFF"/>
</svg>
