<svg width="512" height="512" viewBox="0 0 512 512" fill="none" xmlns="http://www.w3.org/2000/svg">
  <rect width="512" height="512" rx="112" fill="#1A4A8B"/>
  <circle cx="256" cy="256" r="176" fill="#FFFFFF" fill-opacity="0.1"/>
  <path d="M303.2 338.1c-14.4 9.3-32 13.9-52.8 13.9-28.5 0-52-9.1-70.1-27.5-18.1-18.4-27.2-41.6-27.2-69.9 0-29.1 9.3-52.8 28-71.2 18.7-18.4 42.9-27.7 72.5-27.7 20 0 36.8 4 50.4 11.7 13.6 7.7 24.3 19.2 31.5 34.1L297.1 224c-8.5-16.5-23.2-24.8-44-24.8-16 0-29.1 5.1-39.2 15.5-10.1 10.4-15.2 23.7-15.2 40 0 16.5 5.1 29.6 15.5 39.7 10.4 10.1 23.5 15.2 39.5 15.2 20.8 0 36-8.3 45.6-25.1l37.9 21.6c-7.7 14.1-18.9 25.3-33.3 34.7Z" fill="#FFFFFF"/>
</svg>
